<?xml version="1.0" encoding="utf-8"?>
<!-- Generator: Adobe Illustrator 16.0.0, SVG Export Plug-In . SVG Version: 6.00 Build 0)  -->
<!DOCTYPE svg PUBLIC "-//W3C//DTD SVG 1.1//EN" "http://www.w3.org/Graphics/SVG/1.1/DTD/svg11.dtd">
<svg version="1.1" id="Layer_1" xmlns="http://www.w3.org/2000/svg" xmlns:xlink="http://www.w3.org/1999/xlink" x="0px" y="0px"
	 width="24px" height="24px" viewBox="0 0 24 24" enable-background="new 0 0 24 24" xml:space="preserve">
<g>
	<g>
		
			<linearGradient id="SVGID_1_" gradientUnits="userSpaceOnUse" x1="-425.7939" y1="56.4746" x2="-425.7939" y2="51.755" gradientTransform="matrix(5.1 0 0 -5.1 2183.5493 285.1584)">
			<stop  offset="0" style="stop-color:#85C0C1"/>
			<stop  offset="0.9485" style="stop-color:#007481"/>
		</linearGradient>
		<circle fill="url(#SVGID_1_)" cx="12" cy="12" r="11.592"/>
		<path fill="#DFEBEC" d="M12,24C5.376,24,0,18.624,0,12S5.376,0,12,0c6.623,0,12,5.376,12,12S18.623,24,12,24z M12,0.84
			C5.832,0.84,0.84,5.856,0.84,12c0,6.168,5.016,11.16,11.16,11.16c6.144,0,11.159-5.017,11.159-11.16
			C23.159,5.832,18.168,0.84,12,0.84z"/>
	</g>
	<g>
		<rect x="6.264" y="11.592" fill="#DFEBEC" width="2.64" height="0.84"/>
		<polygon fill="#DFEBEC" points="17.712,11.592 16.823,11.592 16.823,10.68 15.96,10.68 15.96,11.592 15.071,11.592 15.071,12.432 
			15.96,12.432 15.96,13.32 16.823,13.32 16.823,12.432 17.712,12.432 		"/>
		<path fill="#DFEBEC" d="M16.535,16.248c-0.216,0-0.456-0.024-0.672-0.048c-1.872-0.265-3.144-1.632-3.84-2.664
			c-0.696,1.032-1.968,2.399-3.84,2.664c-0.216,0.023-0.456,0.048-0.672,0.048c-1.176,0-2.28-0.432-3.096-1.224
			C3.575,14.232,3.119,13.152,3.119,12s0.456-2.208,1.297-3.024c0.815-0.792,1.92-1.224,3.096-1.224
			c0.216,0,0.456,0.024,0.672,0.048c1.872,0.265,3.144,1.632,3.84,2.664c0.696-1.032,1.968-2.399,3.84-2.664
			c0.216-0.023,0.456-0.048,0.672-0.048c1.177,0,2.28,0.432,3.097,1.224c0.84,0.792,1.296,1.872,1.296,3.024
			s-0.456,2.208-1.296,3.024C18.792,15.792,17.712,16.248,16.535,16.248 M12.84,12c0.359,0.696,1.464,2.448,3.239,2.712
			c0.145,0.024,0.312,0.024,0.456,0.024c1.584,0,2.881-1.225,2.881-2.736s-1.297-2.736-2.904-2.736c-0.145,0-0.312,0-0.456,0.024
			C14.279,9.552,13.199,11.304,12.84,12z M7.464,9.264C5.855,9.264,4.56,10.488,4.56,12s1.296,2.736,2.904,2.736
			c0.144,0,0.312,0,0.456-0.024c1.775-0.264,2.855-1.992,3.239-2.712C10.8,11.304,9.695,9.552,7.92,9.288
			C7.775,9.264,7.632,9.264,7.464,9.264z"/>
	</g>
</g>
</svg>
