<?xml version="1.0" encoding="utf-8"?>
<!-- Generator: Adobe Illustrator 16.0.0, SVG Export Plug-In . SVG Version: 6.00 Build 0)  -->
<!DOCTYPE svg PUBLIC "-//W3C//DTD SVG 1.1//EN" "http://www.w3.org/Graphics/SVG/1.1/DTD/svg11.dtd">
<svg version="1.1" id="Layer_1" xmlns="http://www.w3.org/2000/svg" xmlns:xlink="http://www.w3.org/1999/xlink" x="0px" y="0px"
	 width="54px" height="55px" viewBox="0 0 54 55" enable-background="new 0 0 54 55" xml:space="preserve">
<g opacity="0.4">
	<g>
		
			<linearGradient id="SVGID_1_" gradientUnits="userSpaceOnUse" x1="-410.8428" y1="75.7031" x2="-410.8428" y2="65.1821" gradientTransform="matrix(5.1 0 0 -5.1 2122.0493 379.7085)">
			<stop  offset="0" style="stop-color:#AEAEAE"/>
			<stop  offset="0.9485" style="stop-color:#535353"/>
		</linearGradient>
		<circle fill="url(#SVGID_1_)" cx="26.752" cy="26.751" r="25.842"/>
		<path fill="#E8E8E8" d="M26.752,53.503C11.985,53.503,0,41.518,0,26.751C0,11.984,11.985,0,26.752,0
			C41.52,0,53.503,11.984,53.503,26.751C53.503,41.518,41.52,53.503,26.752,53.503z M26.752,1.873
			c-13.75,0-24.878,11.18-24.878,24.878c0,13.749,11.181,24.878,24.878,24.878s24.879-11.181,24.879-24.878
			C51.631,13.001,40.501,1.873,26.752,1.873z"/>
	</g>
	<g>
		<rect x="13.964" y="25.842" fill="#E8E8E8" width="5.886" height="1.872"/>
		<polygon fill="#E8E8E8" points="39.485,25.842 37.506,25.842 37.506,23.809 35.579,23.809 35.579,25.842 33.601,25.842 
			33.601,27.713 35.579,27.713 35.579,29.694 37.506,29.694 37.506,27.713 39.485,27.713 		"/>
		<path fill="#E8E8E8" d="M36.863,36.222c-0.481,0-1.016-0.054-1.497-0.107c-4.173-0.589-7.01-3.64-8.561-5.938
			c-1.552,2.299-4.387,5.35-8.56,5.938c-0.481,0.054-1.018,0.107-1.499,0.107c-2.62,0-5.083-0.964-6.902-2.729
			c-1.871-1.766-2.889-4.173-2.889-6.741c0-2.569,1.018-4.921,2.889-6.741c1.819-1.766,4.282-2.728,6.902-2.728
			c0.481,0,1.018,0.053,1.499,0.107c4.173,0.588,7.008,3.638,8.56,5.939c1.551-2.301,4.388-5.351,8.561-5.939
			c0.481-0.054,1.016-0.107,1.497-0.107c2.622,0,5.084,0.962,6.902,2.728c1.873,1.765,2.889,4.172,2.889,6.741
			c0,2.568-1.016,4.923-2.889,6.741C41.893,35.205,39.485,36.222,36.863,36.222 M28.625,26.751c0.802,1.552,3.263,5.457,7.223,6.046
			c0.32,0.054,0.695,0.054,1.016,0.054c3.531,0,6.422-2.729,6.422-6.1s-2.891-6.1-6.474-6.1c-0.322,0-0.696,0-1.019,0.054
			C31.834,21.293,29.427,25.198,28.625,26.751z M16.64,20.651c-3.585,0-6.473,2.729-6.473,6.1s2.888,6.1,6.473,6.1
			c0.321,0,0.695,0,1.018-0.054c3.958-0.589,6.366-4.44,7.222-6.046c-0.803-1.553-3.264-5.458-7.222-6.046
			C17.335,20.651,17.015,20.651,16.64,20.651z"/>
	</g>
</g>
</svg>
